<?xml version="1.0" encoding="utf-8"?>
<!-- Generator: Adobe Illustrator 18.1.1, SVG Export Plug-In . SVG Version: 6.00 Build 0)  -->
<svg version="1.1" id="Layer_1" xmlns="http://www.w3.org/2000/svg" xmlns:xlink="http://www.w3.org/1999/xlink" x="0px" y="0px"
	 viewBox="0 0 840 835.4" enable-background="new 0 0 840 835.4" xml:space="preserve">
<g>
	<path fill="#C72127" d="M506.5,229.7h-9.7v-60.3c0-11-2.8-16.7-21.4-15.7c-4.4,0.8-8.3,2.6-11.1,5c-2.5,2.2-5.5,7-6.1,10.4
		c-0.9,4.7,0.2,10.7,4,17.9l30.3,43l-23.1,2.1l-25-33.6l-0.4-0.7c-5.9-11.1-8.4-21-7.6-29.9c-2.3,0.2-6.9,0.4-8.5,1.2
		c-1.4,0.8-2.7,1.8-3.7,3.1c-1,1.3-1.7,2.8-2.1,4.3c-1.8,6.6,1.5,11.5,4.7,16.9c4.2,7.2,9,14.4,12.4,20c4.2,7,10.8,15.2,15.5,22.2
		l-20.4,7.3c-10.2-15.2-19.7-28.1-28.8-44.3c-4.7-8.9-5.6-18.8-3.3-27.7c1.2-4.6,3.3-9,6.2-12.7c2.9-3.8,6.7-7,11.4-9.4
		c5.4-2.8,12.5-4.1,20.2-3.8c5.5,0.2,8.3,1.3,14.7-5.1c5-3.8,10.3-6.6,17-7.9c9.3-1.8,18.4-0.1,27.6,3.7c3.3,1.4,4,1.7,7.3,2
		c3.3-0.3,4-0.7,7.3-2c9.3-3.8,18.3-5.5,27.6-3.7c6.7,1.3,12,4.1,17,7.9c6.4,6.4,9.2,5.3,14.7,5.1c7.7-0.2,14.8,1,20.2,3.8
		c4.6,2.4,8.4,5.7,11.4,9.4c2.9,3.8,5,8.1,6.2,12.7c2.4,8.9,1.4,18.8-3.3,27.7c-9.1,16.2-18.6,29.1-28.8,44.3l-20.4-7.3
		c4.7-7,11.3-15.2,15.5-22.2c3.4-5.6,8.2-12.8,12.4-20c3.1-5.4,6.4-10.3,4.7-16.9c-0.4-1.6-1.1-3-2.1-4.3c-1-1.3-2.2-2.4-3.7-3.1
		c-1.6-0.9-6.2-1-8.5-1.2c0.8,8.9-1.7,18.9-7.6,29.9l-0.4,0.7l-25,33.6l-23.1-2.1l30.3-43c3.8-7.3,4.9-13.2,4-17.9
		c-0.6-3.4-3.6-8.3-6.1-10.4c-2.9-2.5-6.8-4.2-11.1-5c-18.6-1-21.4,4.7-21.4,15.7v60.3H506.5z"/>
	<path fill="#C72127" d="M506.2,119c8.9,0,16.2-7.3,16.2-16.2s-7.3-16.2-16.2-16.2c-8.9,0-16.2,7.3-16.2,16.2S497.3,119,506.2,119"
		/>
	<path fill="#FED600" d="M409.9,338.5c-18.3-46.2-9.7-77.1,45.9-80.9c35.4,0,73.9-0.4,109.3-0.4c0,51,4.7,96.6,4.7,147.6
		c-24.3,87.4-100,148.2-226.6,159.1c-25.3,2.2-70.1,5-94-1.8c-7.8-2.2-14.8-5.5-21-10.1c-20.6-15.2-17.9-28-29.2-46.4
		c29.8,3.2,48.8,4.6,64.7,5.4c39.7,2.2,79.4,6.5,119.1,2c54.8-6.2,78.1-25.4,96.1-46.5c-95,20.8-160.1,29.1-268-1.7
		c-38.9-9-47.6-30.6-47.9-55.7c-0.9-10.1-2.1-19.5-5.7-25.3c46.7,15.8,78.5,31.6,135.5,45.9c60.3,13.4,138.6,10.4,169.7-26.2
		c17.4-20.4,21.9-64.5-8.5-74.1C442.8,325.8,428.1,328.7,409.9,338.5"/>
	<path fill="#C72127" d="M169.2,241.6c-3.8,25.1-6.8,49-10.6,74.1c-1.3,11,4,24.2,17.9,31.5c41.1,16.3,82.5,33.2,123.6,49.5
		c44.2,16.2,87.6,13.2,130.4-7.7C335.4,368.6,249,317,169.2,241.6"/>
	<path fill="#C72127" d="M506.9,622C460.5,667,396,694.9,328.1,711.2c11.7,11,23.4,21.1,35.1,32.1c7.4,6.6,16.8,7.5,28.3,1.6
		c17-11.5,31.1-20,48.1-31.5C484.9,682.5,500,651.1,506.9,622"/>
	<path fill="#C72127" d="M545.5,748.6l-21-36.5V576c-22.1,20-47.4,39.2-79.3,54.5c-36.9,17.7-78.2,28.5-119.3,25.4
		c-27.4-2-50.2-11.1-66.9-29.4c-9-9.9-18-19.8-27-29.7c156,37.7,244.1-8.5,292.5-73.4v-22.7h-28.9c-6.7,0-12.4,0.8-14.4,8.6
		c-1.8,7,2.2,16.2,11.5,19.6c-16.7,2.9-31-9-19.3-27.6c-27.1,0.4-51.5-5.1-65-17.6c13.4-12.4,37.9-18,65-17.6
		c-11.6-18.6,2.6-30.6,19.3-27.7c-9.3,3.4-13.3,12.6-11.5,19.6c2,7.8,7.7,8.6,14.4,8.6h28.9v-44.6c-15.1-3.8-18.6-17.9-8.3-33.2
		c14.8-17.5,25-34.3,29.3-49c4.3,14.7,14.5,31.5,29.3,49c10.3,15.3,6.8,29.4-8.3,33.2v44.6h28.9c6.7,0,12.4-0.8,14.4-8.6
		c1.8-7-2.2-16.2-11.5-19.6c16.7-2.9,31,9,19.3,27.7c27.1-0.4,51.5,5.1,65,17.6c-13.4,12.4-37.9,18-65,17.6
		c11.6,18.6-2.6,30.6-19.3,27.6c9.3-3.4,13.3-12.6,11.5-19.6c-2-7.8-7.7-8.6-14.4-8.6h-28.9v211.4L545.5,748.6z"/>
</g>
</svg>
